<svg id="Layer_1" data-name="Layer 1" xmlns="http://www.w3.org/2000/svg" viewBox="0 0 295.64 415.64"><defs><style>.cls-1{fill:#7d9f8e;}.cls-2{fill:#a4655c;}.cls-3{fill:#30443e;}.cls-4{fill:#394d47;}</style></defs><path class="cls-1" d="M25,141.09h-.85c-.61,2.62-1.57,5.16-2.2,7.77s-1.41,5.45-1.93,8.22A53.8,53.8,0,0,1,18.67,163a17.62,17.62,0,0,0-.68,3.53c-.25,2.59-1,5.08-1.22,7.71-.16,2.1-.74,4.22-1.09,6.35a46.35,46.35,0,0,1-.5,4.67c-.62,2.3-.08,4.65-.55,6.86-.66,3.12,0,6.28-.56,9.31-.73,3.94-.32,7.85-.43,11.77a80.12,80.12,0,0,0,.07,11.7c.45,3.85.06,7.7.55,11.48.29,2.31-.07,4.71.56,6.84s-.24,4.42,1,6.39c-.41,2.07.25,4.08.65,6,.49,2.41.34,5,1.51,7.25A2.77,2.77,0,0,1,18,264a23.47,23.47,0,0,0,.94,5.32c.25,1.16.44,2.36.67,3.54q.9,4.5,2,9c.6,2.29,1.18,4.6,1.75,6.9,1.47,5.9,3.8,11.51,5.5,17.33a31.85,31.85,0,0,0,1.31,3.27,62.59,62.59,0,0,0,4.25,9.12c2.22,3.61,3.84,7.53,6.07,11.13s4.5,7.24,7,10.72c2.89,4.08,5.63,8.27,8.8,12.16,1.78,2.18,3.64,4.28,5.41,6.47,4.56,5.62,10.05,10.34,15,15.54a98.15,98.15,0,0,0,10.22,8.76c2.85,2.27,5.9,4.21,8.88,6.26a86.75,86.75,0,0,0,10.84,6,52.37,52.37,0,0,0,9.5,3.39c2.59.71,5.13,1.67,7.8,2.16.81,1.1,2.12.13,3.21.85a6.66,6.66,0,0,0,4,.62c2-.19,3.81.75,5.77.63s3.82-.08,5.72,0c.93,0,1.91.65,2.76.47,3.45-.75,6.95-.23,10.39-.55,2.67-.24,5.3-.84,8-1.14a12.79,12.79,0,0,0,3.3-.52c1.05-.42,2.11-.19,3.05-.51,2.11-.71,4.36-.7,6.46-1.49a16.15,16.15,0,0,1,3.29-.55,60,60,0,0,0,6.93-1.72,63,63,0,0,0,6.53-2c2.25-.9,4.63-1.53,6.83-2.55,3.8-1.77,7.78-3.16,11.44-5.26,2.93-1.68,5.93-3.25,8.81-5.05,3.09-1.94,6.27-3.74,9.26-5.86,1.35-.95,2.56-2.11,3.92-3,1.94-1.32,3.35-3.24,5.2-4.58a55.23,55.23,0,0,0,5.49-5.08,49.33,49.33,0,0,0,5.8-6.85c.83-1.13,1.92-2,2.76-3.2,1-1.47,2.12-3,3.26-4.36a69.8,69.8,0,0,0,5.14-7.71,83.48,83.48,0,0,0,5.43-9.73,128.71,128.71,0,0,0,5.88-15c1.07-3.45,2.13-6.91,3.27-10.35.8-2.41,1.1-5,1.82-7.42.82-2.78,1-5.69,2-8.42.46-1.19-.19-2.64.66-3.81,0-3,1.27-5.81,1.09-8.81.87-1.76.21-3.71.61-5.48.51-2.29.08-4.65.57-6.85.7-3.13,0-6.27.51-9.32.9-5.28.34-10.57.46-15.85s-.05-10.53.08-15.79c0-1.46-.68-2.71-.61-4.14s.37-3-.08-4.32-.29-2.79-.46-4.17c-.12-.93-.4-1.84-.52-2.77a15.56,15.56,0,0,0-.46-2.8,27.6,27.6,0,0,1-.65-5.19,15.71,15.71,0,0,0-.57-3.3c-.83-2.36-.91-4.86-1.47-7.27-.64-2.73-1.1-5.53-1.78-8.27-.76-3.13-1.63-6.22-2.45-9.33-.46-1.72-.93-3.44-1.34-5.17-.77-3.21-1.58-6.41-2.46-9.59-.83-3-1.91-6-2.47-9.07-.18-1-.82-1.85-1-2.83a105.9,105.9,0,0,0-4.45-14c-1.76-4.63-3.14-9.38-5.09-14a98.88,98.88,0,0,1-4.19-10.52c-.57-1.9-1.9-3.57-2.6-5.45-2.22-5.93-5.39-11.39-8.23-17-1.71-3.39-3.63-6.68-5.62-9.93-2.69-4.38-5.57-8.61-8.47-12.83-1.66-2.41-3.31-4.82-5.07-7.15-2-2.6-4.18-5-6.27-7.51a131.6,131.6,0,0,0-12.07-12.35,87.81,87.81,0,0,0-8.6-7.32c-2.82-2-5.54-4.13-8.41-6.06a46,46,0,0,0-11.3-5.6c-1.51-.51-3-1.1-4.55-1.49A28.82,28.82,0,0,1,168,14.26c-.61-.26-1.43,0-2.14-.12s-1.32-.55-2-.48c-2.6.28-5.15-.31-7.65-.68-2.13-.33-4.32,0-6.29-.56s-3.53-.1-5.31.06-3.35.72-5,1c-3,.52-5.55,2-8.32,3a27.48,27.48,0,0,0-4,2.1,26.61,26.61,0,0,0-3.5,2.73c-.82.65-1.64,1.3-2.47,1.93-1.48,1.11-2.46,1-4.63-.44-.2-.57-.36-1.14-.6-1.67-.54-1.23.4-2.16.75-3.13.88-2.47,2.82-4.28,4.79-5.88a40.83,40.83,0,0,1,9.17-5.41A48.25,48.25,0,0,1,141.1,3.26a40.78,40.78,0,0,1,9.35-1.09c1.4,0,2.65.78,4.13.61,1.27-.15,2.66-.41,3.86.48.12.08.36,0,.54,0a69.72,69.72,0,0,1,8.2.62,39,39,0,0,1,7,1.53c1.73.67,3.65.7,5.32,1.63.5.28,1.24.06,1.79.28,1.95.78,3.91,1.55,5.77,2.5a68.91,68.91,0,0,1,9.21,5.37c3.25,2.34,6.48,4.66,9.54,7.26s6,5,8.75,7.75c1.77,1.76,3.83,3.22,5.5,5.06,2,2.18,4,4.32,6,6.51,2.51,2.79,4.88,5.74,7.13,8.75s4.31,6.19,6.43,9.31c1.35,2,2.66,4,4,6,2.58,3.89,5,7.87,7.17,12,2.77,5.21,5.55,10.4,8,15.75,2.11,4.57,4.15,9.17,6,13.87.93,2.4,2.06,4.78,3.05,7.18a144,144,0,0,1,5,13.71c.51,1.69,1.17,3.33,1.75,5,.46,1.35.82,2.74,1.37,4.06s.64,3,1.29,4.36.51,2.88,1.57,4c.36,3.94,2.47,7.45,2.72,11.4,1.06,1.52,1.17,3.36,1.58,5.06s1.21,3.41,1.14,5.25c1.8,4,2.19,8.49,3.74,12.62.74,2,.64,4.25,1.2,6.31.61,2.22.62,4.56,1.52,6.72.26.62,0,1.44.1,2.15s.37,1.3.51,2c.21.91.42,1.84.54,2.77a17.13,17.13,0,0,0,.46,2.52c.4,1.38.27,2.91.57,4.39.47,2.32.21,4.79.69,7.1.44,2.12.06,4.3.56,6.3.74,3,.38,5.87.43,8.79.09,7-.08,14,.07,21,.1,4.76-1,9.45-.59,14.21-.91,2.41-.39,4.93-.56,7.4-.08,1.11-.38,2.2-.51,3.32s.12,2.22-.5,3.34c-.34.63,0,1.61-.08,2.42-.08.66-.58,1.34-.48,1.95.28,1.65-.5,3.11-.66,4.67a10.08,10.08,0,0,1-1,4.46c.37,2.42-1.11,4.54-1.1,6.9a4,4,0,0,1-.31,1c-.8,3.12-1.58,6.24-2.41,9.35-.28,1.05-.82,2-1.06,3.1a103.17,103.17,0,0,1-3.83,12c-.87,2.37-1.71,4.73-2.69,7.06-1.43,3.42-3.2,6.66-4.81,10a90.09,90.09,0,0,1-7.18,12c-2.37,3.44-5,6.69-7.59,10A146.18,146.18,0,0,1,247,376.29a49.45,49.45,0,0,1-5.23,4.46c-1.73,1.28-3.45,2.61-5.14,3.92-4.29,3.31-9,5.88-13.57,8.69a140.83,140.83,0,0,1-13.93,7.16,120.26,120.26,0,0,1-13.56,5.38c-2.24.73-4.46,1.52-6.75,2.1s-4.65,1.08-6.91,1.75c-1.3.38-2.67.3-4,.9s-2.74.36-4.09.65c-2.2.48-4.41.81-6.61,1.18a19.65,19.65,0,0,0-3.85.52c-1.23.47-2.5.13-3.59.52-1.75.62-3.57.1-5.23.55-3,.81-6,.35-9,.46s-6,.07-9,0c-1.19,0-2.38-.37-3.58-.51s-2.23.12-3.35-.49c-.63-.34-1.61,0-2.41-.08s-1.31-.52-2-.5c-2.21.1-4.25-.77-6.3-1.28a40.39,40.39,0,0,1-6.79-2,43.64,43.64,0,0,0-6.44-2.2c-2.71-.74-5-2.31-7.55-3.46a95.47,95.47,0,0,1-13.91-8.47c-2.5-1.72-4.86-3.65-7.27-5.51-7.74-5.95-14.18-13.25-21-20.15-2.81-2.84-5.31-6.07-7.86-9.2s-5-6.68-7.56-10-4.57-6.8-6.8-10.23c-2-3.06-3.71-6.26-5.53-9.41-2.63-4.53-4.84-9.26-7.14-13.94-2.44-5-4.05-10.31-5.87-15.55-1.38-4-2.11-8.16-3.78-12.05,0-2.87-1.34-5.47-1.76-8.29a21.11,21.11,0,0,0-1.42-5.92c-.42-.9-.3-2.17-.6-3.28-.37-1.41-.07-3.11-.75-4.31s.3-2.91-.92-4c.41-1.63-.6-3.08-.58-4.68a17,17,0,0,0-.5-2.77c-.16-.93.38-2-.55-2.77,0,0,0-.18,0-.27C4.17,251,4,248.68,3.8,246.4c-.13-1.39-.43-2.75-.51-4.14s.29-3-.08-4.34c-.91-3.28-.24-6.59-.49-9.87-.15-1.92-.43-3.84-.52-5.76s0-3.81,0-5.72v-6c0-1.82-.33-3.71.09-5.43a23.9,23.9,0,0,0,.45-5.24c0-1.82-.31-3.7.08-5.43.5-2.22.18-4.43.52-6.59.47-3,.6-6.08,1.12-9.08.21-1.2.27-2.41.51-3.59s.26-2.28.57-3.3c.72-2.39.5-5,1.56-7.25-.06-3.23,1.18-6.25,1.73-9.38s1.49-6.08,2.23-9.14c.91-3.77,2.12-7.48,3.21-11.2,1-3.45,2.29-6.85,3.47-10.26,1.59-4.6,3.56-9,5.36-13.57,1.58-4,3.34-7.88,4.92-11.86,1.25-3.11,3.1-6,4.55-9a173,173,0,0,1,12.7-21.43C48,64.65,51,60.65,54.1,56.69c2.48-3.2,4.7-6.6,7.16-9.82,1.88-2.44,4.07-4.64,5.92-7.1,1.68-2.23,3.93-3.94,5.54-6.15s3.77-3.39,5.45-5.29,3.83-3.87,5.75-5.8,3.64-3.82,5.6-5.56a107.32,107.32,0,0,1,12.53-9.21c1.68-1.11,6.91-3.49,9.46-3.4,1.31-1.08,2.63-.36,3.9,0a4.33,4.33,0,0,1,3.28,4.41c0,.63,0,1.26,0,1.81a10,10,0,0,1-6.24,4.76,25.79,25.79,0,0,0-8.07,4.15c-3,2.18-5.79,4.51-8.61,6.88C90.58,30.74,86,35.73,81.26,40.53a71,71,0,0,0-9.52,11.55c-.83,1.31-2.13,2.31-3.07,3.62-3.11,4.37-6.26,8.72-9.64,12.89-1.64,2-3.06,4.21-4.47,6.36s-3.21,4-4,6.51c-4.94,6.52-8,14.1-11.93,21.2-.78,3-2.51,5.67-3.38,8.69-.4,1.39-1.27,2.72-1.83,4.13-2.39,6-5.18,11.86-6.8,18.15a13.69,13.69,0,0,1-.54,1.47c.28,1-.69,1.32-1.09,2Z"/><path class="cls-2" d="M25,141.09v-4c.4-.64,1.37-.95,1.09-2,1.29-.19,2.57-.44,3.86-.53a26.92,26.92,0,0,1,3.81,0c1.56.11,3.11.42,4.68.51s3.36-.33,4.87.11c1.78.52,3.51.25,5.24.48a26.66,26.66,0,0,0,5.5.55c.25,0,.54.36,1,.67l.84-.79c.25-2.48.14-4.95.83-7.17.58-1.86.69-3.84,1.57-5.61s1.49-3.38,2.33-5a27.08,27.08,0,0,1,5.56-7.78c1.14-1,2.19-2.17,3.28-3.26A30.52,30.52,0,0,1,80.1,100.7a33.32,33.32,0,0,1,5.47-1.87c2-.41,4.11-1.16,6.21-.74a32.46,32.46,0,0,1,4.36,1.59,18.9,18.9,0,0,0,4,.49,12.31,12.31,0,0,1,4.38.68c3.69,1.14,7.39,2.35,10.57,4.73,2.4,1.8,4.91,3.48,6.83,5.81,2.92,3.57,5.68,7.25,7.14,11.74a52.13,52.13,0,0,0,2.15,4.88c1.5,0,2.84,0,4.19,0,3.92.16,7.86.13,11.74.64,1.84.23,3.66.39,5.47.45,1.5-.74.51-2.5,1.47-3.45a31.35,31.35,0,0,1,5.77-13.38c4-5.59,9-10.35,15.44-13.11,3-1.26,5.89-2.65,9.2-2.77.57,0,1.11-.45,1.68-.51A9.07,9.07,0,0,1,191.71,97a8.77,8.77,0,0,0,4.45,1c3.21,0,6.09,1,9,2a31.43,31.43,0,0,1,9.25,5.31,35.1,35.1,0,0,1,3.95,3.54,39.53,39.53,0,0,1,4.48,6,46.65,46.65,0,0,1,3.17,6.32,35.91,35.91,0,0,1,2.1,7.58c.07.31.41.56.61.8,1.76.24,3.48.56,5.2.68s3.5-.24,5.16.08c2.75.54,5.53.14,8.21.59,2.09.36,4.33.11,6.47,1.32l1,1.76a3.77,3.77,0,0,1-2.68,2.75c-1.7.18-3.61.48-5.54.58s-4.07-.35-6,.1c-3.74.89-7.49.12-11.48.58a27.73,27.73,0,0,0-1,3.22c-1.19,6-.89,6.24-4.1,12.46a30.33,30.33,0,0,1-5.16,7.41,46,46,0,0,1-3.8,3.85,43.83,43.83,0,0,1-9.61,5.77,39.83,39.83,0,0,1-9.8,2.7,26.9,26.9,0,0,1-5.78.39,36.71,36.71,0,0,1-11.8-2.36,38,38,0,0,1-13.21-8.24,41.65,41.65,0,0,1-8.41-11.79,40.32,40.32,0,0,1-2.42-7.17c-.55-2-.57-4.08-1.28-6.28-3.31,0-6.78-.68-10.34-.7s-6.9.92-10.58.6c0,.71-.09,1.4-.09,2.09,0,2.7-1,5.23-1.4,7.85-.52,3.27-2.18,6-3.6,8.86a20.61,20.61,0,0,1-4.34,6.11,16.86,16.86,0,0,0-1.81,2.22,11.38,11.38,0,0,1-3.39,2.89c-1.42.81-2.61,1.92-4,2.78-2.91,1.83-6.11,2.8-9.24,4-1.06.42-2.33-.22-3.21.78-1.63-.42-3.08.64-4.68.56s-3.14.24-4.61-.08c-2.2-.48-4.49-.37-6.63-1a61.42,61.42,0,0,1-6.36-2.38,27.89,27.89,0,0,1-5.78-3.1,40.53,40.53,0,0,1-10.65-11.3c-2.77-4.66-3.4-5.94-4.92-12.13a32.74,32.74,0,0,0-1.09-3.14,23.55,23.55,0,0,1-3.06.46c-8.26,0-16.52,0-24.95,0C27.13,142.59,26.09,141.84,25,141.09Zm76-33.23c-1.24,0-2.78,0-4.33,0a6.36,6.36,0,0,0-3.32.52,14.86,14.86,0,0,1-2.73.66c-1.17.4-2.38.3-3.52.67a28.28,28.28,0,0,0-7.76,3.6c-4.1,2.94-7.66,6.33-9.74,11.07-.44,1-.79,2.05-1.29,3-1.38,2.67-1.58,5.6-1.87,8.47a13,13,0,0,0,.42,6.05,27,27,0,0,1,.5,3c.27,1.11.84,2,1.15,3.07,1.27,4.39,3.94,7.09,5.52,9.15A19.4,19.4,0,0,0,80,162a23.65,23.65,0,0,0,11.28,3.63c1.72,0,3.46-.09,5.17,0,2.41.17,4.52-1.1,6.85-1.24,3.73-1.91,7.53-3.73,10.54-6.74a35.16,35.16,0,0,0,6.52-10.09c1.43-3,1.5-6.3,2.13-9.47.5-2.49-.18-5-.63-7.37a32.42,32.42,0,0,0-2.77-8.09c-1.46-3-3.71-5.28-6-7.6a28.07,28.07,0,0,0-8.51-5.76C103.59,108.82,102.56,108.46,101.05,107.86Zm89.75,55.56h3.53a14.73,14.73,0,0,0,5.94-1.41c4.77-2.12,9.37-4.55,12.57-9.06A58.4,58.4,0,0,0,217.4,145c1.45-2.92,1.46-6.14,1.94-9.25a14.84,14.84,0,0,0-.35-5.23c-.38-1.83-.74-3.68-1.21-5.51-1.54-6-5.58-10.32-10-14.36-1.3,0-1.5-1.77-2.81-1.73-2.89-1.87-6.31-1.87-9.5-2.66a15.73,15.73,0,0,0-4.6-.05,14,14,0,0,0-4.37.61c-1.21.49-2.5.48-3.66,1s-2.18.89-3.22,1.42-2.23,1.2-3.31,1.86a26.78,26.78,0,0,0-8.55,8.56,25.86,25.86,0,0,0-4.17,12.13c-.05.87-.28,1.73-.25,2.6,0,1.75-.39,3.55.52,5.21-.22,2.68.88,5.07,1.9,7.38a26.72,26.72,0,0,0,9.55,11.76c4.42,2.94,9.19,4.91,14.65,4.65Z"/><path class="cls-3" d="M132.35,199l3-1.12a12.16,12.16,0,0,0,2.11.93,5.87,5.87,0,0,1,2.81,1.75,6,6,0,0,0,5.9,2c1.86-.53,3.83.09,5.58-.94.77-.45,1.73-.59,2.54-1.09H157c1,.46.94,1.38.87,2.32l-.27.39c-2.1,3.46-5.62,4.76-9.17,6a26.15,26.15,0,0,1-4.71,1.08c-3.19.45-5.85-1.05-8.38-2.69-1.47-1-2.75-2.2-4.15-3.33C131.3,202.48,130.85,200.78,132.35,199Z"/><path class="cls-4" d="M81.68,140.75v-2.38l1.81-1.65,1.8.63a1.69,1.69,0,0,0,.2.6,8.64,8.64,0,0,0,7.08,3.61,6,6,0,0,0,5.53-2.93,24.41,24.41,0,0,1,3.57-3.66l1.63.61c.52,2.44-.5,4-1.79,5.69a10.63,10.63,0,0,1-5.88,4.2,12.47,12.47,0,0,1-8.09-.38A14.48,14.48,0,0,1,81.68,140.75Z"/><path class="cls-4" d="M193.89,143.81c-1.76,0-3.49.1-5.2,0a9.6,9.6,0,0,1-8-4.46,29,29,0,0,0-2.26-3.66c.29-.76.53-1.39.78-2l1.55-.73A5.09,5.09,0,0,1,184,136a4.2,4.2,0,0,0,2.31,2.35c.61.28,1.18.66,1.95,1.08,1.05,0,2.32,0,3.58,0a3.58,3.58,0,0,0,2.8-1.12l3.19-3.24h2.24l.7.7v2.14C199.48,141,196.78,142.36,193.89,143.81Z"/></svg>