<svg id="Layer_1" data-name="Layer 1" xmlns="http://www.w3.org/2000/svg" viewBox="0 0 295.64 415.64"><defs><style>.cls-1{fill:#7d9f8e;}.cls-2{fill:#a4655c;}.cls-3{fill:#30443e;}.cls-4{fill:#344842;}.cls-5{fill:#354943;}.cls-6{fill:#b6b99c;}.cls-7{fill:#b6b89c;}</style></defs><path class="cls-1" d="M25,141.09h-.85c-.61,2.62-1.57,5.16-2.2,7.77s-1.41,5.45-1.93,8.22A39.32,39.32,0,0,1,18.65,163c-.37,1.06-.08,2.18-.6,3.3s-.13,2.87-.71,4.05,0,2.84-1,3.95c.43,1.89-.61,3.63-.58,5.5a23.35,23.35,0,0,1-.5,3.58c-.16,1.11.39,2.33-.54,3.33-.09.1,0,.35,0,.53.23,3.85-.89,7.63-.56,11.49.23,2.75-.76,5.43-.57,8.22s0,5.62,0,8.44.09,5.63,0,8.44c-.08,2.14.8,4.15.62,6.31a21.82,21.82,0,0,0,.06,6.51,46.3,46.3,0,0,1,.46,6.06c.09,1.12.36,2.21.52,3.32s-.37,2.31.52,3.34c.18.2,0,.7,0,1.06.17,1.66.35,3.31.55,4.95a25.32,25.32,0,0,0,1,4.75,26.41,26.41,0,0,1,.61,4.65,27.27,27.27,0,0,0,.57,3.85,47.52,47.52,0,0,1,1.13,5.27,37.78,37.78,0,0,0,1.11,5c1.06,3.65,1.85,7.37,2.92,11,1.57,5.33,3.45,10.56,5.16,15.84a36.77,36.77,0,0,0,1.28,3.56,77.19,77.19,0,0,0,4.29,9.1c2.22,3.61,3.83,7.52,6.06,11.12s4.51,7.25,7,10.72c2.9,4.09,5.62,8.29,8.81,12.16,1.79,2.17,3.6,4.32,5.4,6.48,5.09,6.12,11,11.43,16.6,17.06a100.63,100.63,0,0,0,15.8,12.44,122.45,122.45,0,0,0,14.61,8.1,28.4,28.4,0,0,0,7,2.28c1.06.2,2,.8,3.09,1,2.5.55,4.89,1.57,7.49,1.65,1,1.15,2.46.27,3.7,1,1,.55,2.58-.21,3.72.18,2.47.83,5,.27,7.42.48,1,.09,2.08-.26,3.08.49a2.42,2.42,0,0,0,1.86,0c3-1,6.05-.18,9-.57,1.94-.26,4-.16,5.83-1a3.16,3.16,0,0,1,1.07,0,6.73,6.73,0,0,0,3.07-.49c.88-.46,2,0,3.07-.48s2.53-.29,3.81-.63,2.77-.05,3.8-.67c1.22-.73,2.7.13,3.69-1,1.94.12,3.7-.68,5.53-1.11a89.15,89.15,0,0,0,10.87-3.33c2.27-.86,4.44-2,6.79-2.67a2.67,2.67,0,0,0,.46-.2c3-1.39,6.06-2.56,8.86-4.21s5.81-3.14,8.59-5c3.05-2,6.27-3.76,9.25-5.88,1.35-.95,2.56-2.11,3.93-3,1.87-1.25,3.23-3.08,5-4.4a65.07,65.07,0,0,0,6.09-5.64,44.11,44.11,0,0,0,5.41-6.46c.8-1.14,1.92-2,2.75-3.2,1.05-1.47,2.13-3,3.27-4.36a72.75,72.75,0,0,0,5.14-7.71,76.53,76.53,0,0,0,5.42-9.73,147.37,147.37,0,0,0,6.09-15.73c1-3.21,1.87-6.46,3-9.62.89-2.37,1.13-5,1.85-7.41.81-2.78,1-5.69,2-8.42.45-1.19-.2-2.64.66-3.81-.05-3,1.27-5.8,1.09-8.81.86-1.76.21-3.71.61-5.48.51-2.29.07-4.65.57-6.85.7-3.13,0-6.27.51-9.31.9-5.29.34-10.58.46-15.86s-.05-10.53.08-15.79c0-1.46-.67-2.71-.61-4.14s.37-3-.08-4.32a17.62,17.62,0,0,1-.46-4.16c-.12-.93-.39-1.85-.52-2.78a14.09,14.09,0,0,0-.46-2.8,20.32,20.32,0,0,1-.63-4.91c-.08-.78.13-1.61-.56-2.23.4-1.28-.52-2.36-.57-3.59a16.06,16.06,0,0,0-.54-3.58c-.83-3-1.18-6-2-9-.66-2.35-1.16-4.79-1.77-7.18s-1.17-4.77-1.79-7.15-1.46-4.87-2-7.34c-.44-2.09-1.15-4.08-1.69-6.12-.66-2.53-1.46-5-2.15-7.55-1.45-5.28-3.06-10.54-5-15.63-1.78-4.61-2.76-9.55-5.32-13.86-.68-3.15-2.33-5.93-3.49-8.9a222.9,222.9,0,0,0-11.24-23.94c-1.79-3.36-3.64-6.68-5.63-9.93-2.69-4.38-5.53-8.63-8.48-12.83-.9-1.26-1.74-2.55-2.69-3.79s-1.76-2.54-2.71-3.78c-1.88-2.44-4-4.71-5.93-7.08A124.73,124.73,0,0,0,205.3,35.88a88,88,0,0,0-8.6-7.32c-2.82-2-5.54-4.13-8.41-6.06a45.87,45.87,0,0,0-11.55-5.65c-2.89-.93-5.84-1.64-8.72-2.59a12.47,12.47,0,0,0-2.14-.11c-.66-.1-1.32-.56-1.95-.49-2.6.28-5.15-.31-7.66-.68-2.12-.32-4.23-.22-6.31-.54-1-.15-2-.64-3-.42-3.25.69-6.61.83-9.73,2.13-1.24.52-2.57.82-3.78,1.38a37.34,37.34,0,0,0-7.57,4.08c-1.37,1.08-2.77,2.11-4.1,3.24a4.11,4.11,0,0,1-3.58,1l-2.33-3.14c1-3.38,2.55-6.09,5.52-8,1.58-1,2.81-2.6,4.56-3.5,3.74-1.92,7.43-3.89,11.56-5,1.2-.32,2.46-.59,3.66-1a31.27,31.27,0,0,1,3.56-.64,21.06,21.06,0,0,1,5.24-.44c1.2.07,2.38.42,3.58.5s2.68-.33,3.78.11c1.51.59,3,.17,4.43.49,3.12.7,6.32.7,9.46,1.39s6.19,1.84,9.37,2.44c1.29.24,2.43,1.18,3.72,1.51,2.34.61,4.23,2.07,6.33,3.12A69.73,69.73,0,0,1,200,17.92c3.14,2.25,6.05,4.78,9,7.25,1.5,1.26,2.9,2.6,4.32,3.93,1.63,1.51,3.3,3,4.93,4.48A100.13,100.13,0,0,1,226,41.79c2.47,2.83,4.87,5.75,7.12,8.76s4.29,6.19,6.42,9.31c1.34,2,2.69,4,4,6,2.48,3.85,4.86,7.73,7,11.79,2.81,5.28,5.65,10.54,8.17,16,2.11,4.57,4.19,9.14,5.95,13.88.87,2.33,1.93,4.64,2.94,7,1.94,4.47,3.56,9.06,5.13,13.67.65,1.91.95,3.95,2.17,5.64,0,2.71,1.49,5,2.26,7.51,1.24,4,2.49,8.06,3.59,12.11,1,3.83,2.17,7.68,2.93,11.61.6,3.05,1.92,6,2.52,9,.66,3.43,1.85,6.72,2.47,10.19.55,3.06.83,6.25,2,9.2-.24,2.74.9,5.29,1.18,8s1,5.65,1,8.54c.92,1.63.12,3.54.74,5.15.7,1.79-.12,3.61.4,5.28.91,2.92.43,5.86.47,8.78.09,7.26,0,14.53.06,21.79.06,4.48-1,8.9-.58,13.39-.86,2.23-.45,4.56-.54,6.85,0,1.22-.73,2.3-.59,3.6a5.71,5.71,0,0,1-.44,3.61c-.35.62,0,1.61-.08,2.42s-.42,1.47-.51,2.23a8.17,8.17,0,0,1-.51,3.06c-.43.89,0,2-.5,3.07-.59,1.27-.43,2.89-.65,4.35-.09.58-.48,1.12-.51,1.69a28.7,28.7,0,0,1-1.1,5.27c-.58,2.21-1.12,4.44-1.64,6.67-.61,2.64-1.51,5.21-2.3,7.78-.71,2.32-1.43,4.66-2.22,7a131.18,131.18,0,0,1-9.3,21.2A102.73,102.73,0,0,1,265,355.74c-2.3,3-4.68,6-7,9.05a97.63,97.63,0,0,1-9.42,10,80.75,80.75,0,0,1-6.14,5.57c-3.93,3.1-7.9,6.15-12.11,8.87-2.06,1.33-4.3,2.37-6.36,3.69-4.41,2.85-9.21,4.93-13.89,7.24-2.76,1.36-5.7,2.43-8.58,3.59-2.49,1-5.09,1.71-7.54,2.81a14.68,14.68,0,0,1-2.21.6q-4.77,1.31-9.56,2.56c-3.14.8-6.41,1-9.46,2.12-1.62-.4-3.07.59-4.67.58a17,17,0,0,0-2.77.51c-.93.16-2-.4-2.78.54-.08.09-.35,0-.53,0-2.41-.19-4.71,1-7.13.54-5.15,1.14-10.37.32-15.56.52a13,13,0,0,1-5-.45c-1.44-.52-3.08.14-4.69-.52a14.06,14.06,0,0,0-4.1-.52,41.83,41.83,0,0,1-6.57-1.36,135.05,135.05,0,0,1-13.23-4.15c-2.64-.94-5-2.35-7.54-3.5a94.08,94.08,0,0,1-13.91-8.47c-2.49-1.72-4.86-3.65-7.27-5.51-7.74-6-14.18-13.25-21-20.15-2.81-2.84-5.31-6.07-7.86-9.2s-5-6.68-7.56-10-4.55-6.8-6.79-10.24c-2-3-3.71-6.25-5.53-9.4-2.63-4.54-4.86-9.25-7.14-13.94a111.53,111.53,0,0,1-5.83-15.56c-.63-2-1.19-4.08-1.84-6.06s-.64-4.22-2-6c0-2.88-1.33-5.48-1.76-8.29-.29-1.94-.31-4.11-1.5-5.88.13-2.38-.69-4.63-1.17-6.89-.56-2.68-.67-5.43-1.51-8.07-.32-1,.19-2.29-.59-3.3.41-1.89-.6-3.63-.58-5.49a28.35,28.35,0,0,0-.51-3.86c-.15-1.2.33-2.45-.5-3.62-.29-.43,0-1.24,0-1.88-.08-5.28-.9-10.54-.55-15.84-1.13-3.41-.39-6.93-.51-10.4s-.45-7.14.08-10.6.19-6.95.45-10.41c.09-1.2.42-2.39.51-3.59s-.29-2.64.09-3.79c.53-1.58.27-3.15.5-4.69a49,49,0,0,0,1.06-8c1-1.44.57-3.18,1-4.75s1.06-3,.65-4.65c1.15-2.68.81-5.74,2.17-8.36,0-2.71,1-5.19,1.65-7.76s1.24-4.92,2-7.36c.95-3.32,1.89-6.66,3-9.94,1.59-4.87,3.19-9.73,5.1-14.5,1.4-3.5,3.19-6.85,4.18-10.53.41-1.51,1.46-2.84,2-4.33A154.08,154.08,0,0,1,34,87.3,132.27,132.27,0,0,1,43.15,72c1.58-2.24,3.14-4.49,4.6-6.81,1.3-2,2.85-3.89,4.26-5.86,2.4-3.37,5.06-6.55,7.37-10,.92-1.37,2.28-2.41,3.25-3.82,1.79-2.57,3.81-5,5.74-7.43.28-.36.65-.64,1-1,1.57-1.71,3.09-3.47,4.73-5.11s3.26-3,4.85-4.49,3.35-3.33,5-5,3.14-3.29,4.83-4.8A77.7,77.7,0,0,1,99.07,9.8a37.67,37.67,0,0,1,5.46-3.26c1.31-.55,2.66-1,3.94-1.65s2.86-.34,4.2-1c.76-.4,3.69.7,4.53,1.47a4,4,0,0,1,1.5,3.46c-.06.62,0,1.25,0,1.8a10,10,0,0,1-6.24,4.77,25,25,0,0,0-8.07,4.15c-2.95,2.19-5.83,4.45-8.63,6.86C90.61,30.79,86,35.73,81.26,40.53a71,71,0,0,0-9.52,11.55c-.83,1.31-2.13,2.31-3.07,3.63C65.56,60.07,62.4,64.42,59,68.59c-1.64,2-3.06,4.21-4.47,6.36s-3.21,4-4,6.51c-4.94,6.52-8,14.1-11.93,21.2-.78,3-2.51,5.67-3.38,8.69-.4,1.39-1.27,2.72-1.83,4.13-2.39,6-5.18,11.86-6.8,18.15a13.69,13.69,0,0,1-.54,1.47c.28,1-.69,1.32-1.09,2Z"/><path class="cls-2" d="M25,141.09v-4c.4-.64,1.37-.95,1.09-2,1.29-.19,2.57-.44,3.86-.53a26.92,26.92,0,0,1,3.81,0c1.56.11,3.11.42,4.68.51s3.36-.33,4.87.11c1.78.52,3.51.25,5.24.48a26.66,26.66,0,0,0,5.5.55c.25,0,.54.36,1,.67l.84-.79c.25-2.48.14-4.95.83-7.17.58-1.86.69-3.84,1.57-5.61s1.49-3.38,2.33-5a27.08,27.08,0,0,1,5.56-7.78c1.14-1,2.19-2.17,3.28-3.26A30.52,30.52,0,0,1,80.1,100.7a33.32,33.32,0,0,1,5.47-1.87c2-.41,4.11-1.16,6.21-.74a32.46,32.46,0,0,1,4.36,1.59,18.9,18.9,0,0,0,4,.49,12.31,12.31,0,0,1,4.38.68c3.69,1.14,7.39,2.35,10.57,4.73,2.4,1.8,4.91,3.48,6.83,5.81,2.92,3.57,5.68,7.25,7.14,11.74a52.13,52.13,0,0,0,2.15,4.88c1.5,0,2.84,0,4.19,0,3.92.16,7.86.13,11.74.64,1.84.23,3.66.39,5.47.45,1.5-.74.51-2.5,1.47-3.45a31.35,31.35,0,0,1,5.77-13.38c4-5.59,9-10.35,15.44-13.11,3-1.26,5.89-2.65,9.2-2.77.57,0,1.11-.45,1.68-.51A9.07,9.07,0,0,1,191.71,97a8.77,8.77,0,0,0,4.45,1c3.21,0,6.09,1,9,2a31.43,31.43,0,0,1,9.25,5.31,35.1,35.1,0,0,1,3.95,3.54,39.53,39.53,0,0,1,4.48,6,46.65,46.65,0,0,1,3.17,6.32,35.91,35.91,0,0,1,2.1,7.58c.07.31.41.56.61.8,1.76.24,3.48.56,5.2.68s3.5-.24,5.16.08c2.75.54,5.53.14,8.21.59,2.09.36,4.33.11,6.47,1.32l1,1.76a3.77,3.77,0,0,1-2.68,2.75c-1.7.18-3.61.48-5.54.58s-4.07-.35-6,.1c-3.74.89-7.49.12-11.48.58a27.73,27.73,0,0,0-1,3.22c-1.19,6-.89,6.24-4.1,12.46A34.35,34.35,0,0,1,218.9,161a39.57,39.57,0,0,1-4.28,4.12,28.87,28.87,0,0,1-8.91,5.42,31.9,31.9,0,0,0-4.68,1.81c-1.07.57-2.39-.33-3.2.84-3.19.23-6.4,1.07-9.55.44-1.56-.31-3.14-.17-4.64-.58s-2.71-.93-4.08-1.32a21.47,21.47,0,0,1-4.26-1.54c-1.27-.67-2.62-1.18-3.83-1.93a26.39,26.39,0,0,1-4.41-3.12,45.2,45.2,0,0,1-8.13-9.4,34.76,34.76,0,0,1-4.85-12.16c-.86-.79-.4-1.84-.56-2.77s-.45-1.82-.74-3c-3.32,0-6.79-.68-10.35-.7s-6.9.92-10.58.6c0,.71-.09,1.4-.09,2.09,0,2.7-1,5.23-1.4,7.85-.52,3.27-2.18,6-3.6,8.86a20.61,20.61,0,0,1-4.34,6.11c-1.46,1.34-2.62,3-4.16,4.25a38.13,38.13,0,0,1-9.59,5.81c-1.23.54-2.53.92-3.72,1.56a11.75,11.75,0,0,1-4.19,1c-1.55.19-3.06.78-4.66.7s-3.14.24-4.61-.08c-2.2-.48-4.49-.37-6.63-1a61.42,61.42,0,0,1-6.36-2.38,27.89,27.89,0,0,1-5.78-3.1,40.53,40.53,0,0,1-10.65-11.3c-2.77-4.66-3.4-5.94-4.92-12.13a32.74,32.74,0,0,0-1.09-3.14,23.55,23.55,0,0,1-3.06.46c-8.26,0-16.52,0-24.95,0C27.13,142.59,26.09,141.84,25,141.09Zm166,22.33c1.79-.15,3.79.14,5.84-.44a21,21,0,0,0,3.44-.9c4.79-2.34,9.5-4.71,12.73-9.32a56.07,56.07,0,0,0,4.36-7.73c1.34-2.74,1.59-5.75,2-8.69.5-3.85-.42-7.61-1.58-11.28-1.26-4-3-7.64-6.12-10.53-1.13-1-2.19-2.17-3.27-3.27a15.78,15.78,0,0,0-3.37-2.35c-3-1.74-6.32-1.89-9.52-2.61a17.46,17.46,0,0,0-5.68,0,14.78,14.78,0,0,0-3.28.59c-1.22.46-2.51.44-3.67,1s-2.18.89-3.22,1.41a29,29,0,0,0-3.3,1.88,29.41,29.41,0,0,0-9.81,11A30.28,30.28,0,0,0,163.35,135a23.34,23.34,0,0,0,.44,5.51c.35,1.76,1.1,3.43,1.18,5.24,2.58,5,5.46,9.87,10.34,13.07,4.44,2.91,9.2,4.91,14.66,4.65ZM93.94,165.6c1,0,2,.07,3,0a16.88,16.88,0,0,0,4.64-.63,35.9,35.9,0,0,0,11.83-6.89,31.46,31.46,0,0,0,6.4-9.32,30.27,30.27,0,0,0,2.68-10.86,24.6,24.6,0,0,0-1-8.55,43.28,43.28,0,0,0-3.89-9.29c-1.36-2.17-3.42-3.64-5-5.55-2.54-3-6.22-4.2-9.48-6.06a4.39,4.39,0,0,0-2.21-.54c-2.47.12-5-.49-7.4.49a8.48,8.48,0,0,1-2.49.55,25.52,25.52,0,0,0-7.1,1.94A28.18,28.18,0,0,0,68.12,127.5a26.29,26.29,0,0,0-1.65,8.29,17.89,17.89,0,0,0,.47,6.86c.41,1.21.35,2.57.77,3.77a32.32,32.32,0,0,0,6.5,10.93,22,22,0,0,0,6,4.74c3.49,1.93,7.19,3.51,11.33,3.51Z"/><path class="cls-3" d="M135.24,197.85a22.26,22.26,0,0,1,2.6,1,11.31,11.31,0,0,1,2.32,1.61,7.06,7.06,0,0,0,7.06,1.71,9,9,0,0,1,1.88-.07,21.14,21.14,0,0,0,4.43-1.11c1.13-.79,2.37-.48,3.56-.51l.79.79v1.63a1.46,1.46,0,0,0-.16.19c-2,3.43-5.51,4.69-8.87,6a22.43,22.43,0,0,1-5.24,1.12c-3.1.44-5.68-1.08-8.15-2.6a42.43,42.43,0,0,1-4.25-3.43c0-1.67-.26-3.22.56-4.56S134.21,198.53,135.24,197.85Z"/><path class="cls-4" d="M189.63,128.57c.94.33,2.09-.16,3.4.42,3.14,1.39,4.72,2.67,5.7,5.75.15.47.59,1,.5,1.4-.35,1.48.7,2.73.57,4.14-.37,3.95-1.48,7.46-5.69,9-.23.09-.4.36-.58.53h-3.89c-4.6-1.61-7.38-4.58-7.78-9.38C181.39,134.74,183.73,130.71,189.63,128.57Zm5.69,4.48h-2.15l-1.5,1.15v3l2.44,1.32,2.37-1.3v-3Z"/><path class="cls-5" d="M93.67,126.38c3.82,0,5.76,1.33,8.2,4.53a10.81,10.81,0,0,1,2,8.36,12.57,12.57,0,0,1-4.8,8.57,7.76,7.76,0,0,1-2.86,1c-1,.3-1.9.79-2.85-.07-2.74.08-4.59-1.57-6.13-3.48A9.37,9.37,0,0,1,84.9,140c-.07-1.19-.65-2.31-.53-3.58.22-2.33.46-4.54,2.1-6.49s4.12-3.54,6.39-3.55Zm6.43,10.05a4.42,4.42,0,0,0,.5-3.51L98,131.12,95.3,133c-.08,1.42-.08,2.63.73,3.51C97.31,137.68,98.6,137.45,100.1,136.43Z"/><path class="cls-6" d="M195.32,133.05l1.16,1.16v3l-2.37,1.3-2.44-1.32v-3l1.5-1.15Z"/><path class="cls-7" d="M100.1,136.43c-1.5,1-2.79,1.25-4.07.07-.81-.88-.81-2.09-.73-3.51L98,131.12l2.59,1.8A4.42,4.42,0,0,1,100.1,136.43Z"/></svg>